<?xml version="1.0" ?>
<svg enable-background="new 0 0 512 512" id="Layer_1" version="1.1" viewBox="0 0 512 512" xml:space="preserve"
     xmlns="http://www.w3.org/2000/svg" xmlns:xlink="http://www.w3.org/1999/xlink"><g><g><g><g><g><path d="M411.1,158.7c21.3,0,42.7,0,64,0c6.7,0,14.6-0.8,14.6,8.4c0,10.1,0,20.2,0,30.3c0,41.8,0,83.6,0,125.4       c0,6.5,2.5,19.5-6.9,20.2c-1.7,0.1-3.5,0-5.2,0c-12.5,0-25,0-37.5,0c-48,0-95.9,0-143.9,0c-55.1,0-110.1,0-165.2,0       c-32.6,0-65.3,0-97.9,0c-2.9,0-6.1,0.4-8.5-1.6c-2.9-2.3-2.5-5.7-2.5-9c0-4.5,0-9.1,0-13.6c0-22.5,0-45.1,0-67.6       c0-19.9,0-39.7,0-59.6c0-8.5-0.5-17.2,0-25.7c0.6-10.2,15.8-7.2,23.1-7.2c38.6,0,77.3,0,115.9,0c39.8,0,79.7,0,119.5,0       c6.6,0,13.3,0,19.9,0c9.7,0,9.7-15,0-15c-40.1,0-80.1,0-120.2,0c-38.4,0-76.8,0-115.2,0c-9.5,0-19,0-28.5,0       c-6.1,0-12.3-0.4-17.9,2.6c-7.5,4-11.4,11.6-11.6,19.9c-0.7,23.2,0,46.6,0,69.8c0,15.8,0,31.7,0,47.5c0,13.6,0,27.1,0,40.7       c0,11-1,22.5,9.4,29.8c8,5.6,20,4,29.4,4c17.2,0,34.4,0,51.6,0c53.8,0,107.6,0,161.4,0c53.3,0,106.5,0,159.8,0       c16.5,0,33,0,49.6,0c12.1,0,25.8,1.7,33.2-10.5c4.8-7.9,3.2-19,3.2-27.9c0-13.9,0-27.9,0-41.8c0-15.6,0-31.2,0-46.7       c0-21.8,0.8-43.7,0-65.5c-0.5-11.6-8.8-20.9-20.5-21.8c-2.8-0.2-5.7-0.1-8.5-0.1c-13.2,0-26.4,0-39.6,0c-8.4,0-16.7,0-25.1,0       C401.5,143.7,401.5,158.7,411.1,158.7L411.1,158.7z"/></g></g><g><g><path d="M497.2,243.3c-21.3,0-42.7,0-64,0c-9.7,0-9.7,15,0,15c21.3,0,42.7,0,64,0C506.9,258.3,506.9,243.3,497.2,243.3       L497.2,243.3z"/></g></g><g><g><path d="M278.6,243.3c-29.9,0-59.7,0-89.6,0c-47.2,0-94.4,0-141.6,0c-10.9,0-21.7,0-32.6,0c-9.7,0-9.7,15,0,15       c29.9,0,59.7,0,89.6,0c47.2,0,94.4,0,141.6,0c10.9,0,21.7,0,32.6,0C288.2,258.3,288.3,243.3,278.6,243.3L278.6,243.3z"/></g></g><g><g><path d="M433.3,215.7c-0.3,32-20.3,61.8-50.7,72.7c-30.9,11.1-65.8,1.6-86.7-23.7c-20.5-24.9-22.9-61.2-6.4-88.8       c16.6-27.6,49.8-42.6,81.5-36.1C407.1,147.1,433,179,433.3,215.7c0.1,9.6,15.1,9.7,15,0c-0.3-38.8-24.7-73.5-61.1-86.9       c-36.1-13.3-78.6-1.5-102.8,28.4c-24.2,29.9-27.8,72.7-7.9,106c20.1,33.4,59.6,50.7,97.8,43.2c42.8-8.4,73.6-47.3,74-90.6       C448.4,206,433.4,206,433.3,215.7z"/></g></g><g><g><path d="M388.9,215.7c-0.2,13.7-8.6,26.4-21.7,31c-13.1,4.6-27.9,0.7-36.8-10.1c-8.7-10.5-9.8-25.9-3-37.6       c6.9-11.8,21.1-18.5,34.7-15.8C377.7,186.4,388.7,199.9,388.9,215.7c0.2,9.6,15.2,9.7,15,0c-0.3-20.1-12.6-37.9-31.5-45       c-18.5-7-40.5-1.2-53.1,14c-12.9,15.5-15.1,37.8-4.9,55.3c10.4,17.7,31,26.6,50.9,22.8c22.4-4.2,38.1-24.7,38.5-47       C404.1,206,389.1,206,388.9,215.7z"/></g></g><g><g><path d="M127.9,151.2c0,18.8,0,37.7,0,56.5c0,3.7-0.6,7.6-4.9,8.9c-5,1.6-8.8-2.5-9-7.2c-0.4-9.7,0-19.5,0-29.2       c0-9.6,0-19.3,0-28.9c0-9.7-15-9.7-15,0c0,19.6-0.8,39.2,0,58.8c0.4,10.7,7.7,19.9,18.5,21.6c10.7,1.7,21.5-5,24.4-15.5       c1.1-4,0.8-8.2,0.8-12.3c0-6.1,0-12.2,0-18.2c0-11.4,0-22.9,0-34.3C142.9,141.5,127.9,141.5,127.9,151.2L127.9,151.2z"/></g></g><g><g><path d="M57.1,151.2c0,18.8,0,37.7,0,56.5c0,3.7-0.6,7.6-4.9,8.9c-5,1.6-8.8-2.5-8.9-7.2c-0.4-9.7,0-19.5,0-29.2       c0-9.6,0-19.3,0-28.9c0-9.7-15-9.7-15,0c0,19.6-0.8,39.2,0,58.8c0.4,10.7,7.7,19.9,18.5,21.6c10.7,1.7,21.5-5,24.4-15.5       c1.1-4,0.8-8.2,0.8-12.3c0-6.1,0-12.2,0-18.2c0-11.4,0-22.9,0-34.3C72.1,141.5,57.1,141.5,57.1,151.2L57.1,151.2z"/></g></g><g><g><path d="M198.7,151.2c0,18.8,0,37.7,0,56.5c0,3.7-0.6,7.6-4.9,8.9c-5,1.6-8.8-2.5-9-7.2c-0.4-9.7,0-19.5,0-29.2       c0-9.6,0-19.3,0-28.9c0-9.7-15-9.7-15,0c0,19.6-0.8,39.2,0,58.8c0.4,10.7,7.7,19.9,18.5,21.6c10.7,1.7,21.5-5,24.4-15.5       c1.1-4,0.8-8.2,0.8-12.3c0-6.1,0-12.2,0-18.2c0-11.4,0-22.9,0-34.3C213.7,141.5,198.7,141.5,198.7,151.2L198.7,151.2z"/></g></g></g><g><g><path d="M99,373.7c-11.2,0-22.3,0-33.5,0c-1.3,0-2.3,0.4-3-0.7c-0.4-0.7,0.1-4.5,0.1-5.6c0-5.7,0-11.3,0-17      c-2.5,2.5-5,5-7.5,7.5c17.4,0,34.8,0,52.1,0c-2.5-2.5-5-5-7.5-7.5C99.7,353.4,100.8,373.6,99,373.7c-9.6,0.8-9.6,15.8,0,15      c6.6-0.5,12.3-3.8,14.7-10.3c1.2-3.1,1.1-6.2,1.1-9.4c0-6.2,0-12.5,0-18.7c0-4.1-3.4-7.5-7.5-7.5c-17.4,0-34.8,0-52.1,0      c-4.1,0-7.5,3.4-7.5,7.5c0,6.5,0,12.9,0,19.4c0,10,5,18.4,15.9,18.9c11.8,0.5,23.7,0,35.5,0C108.6,388.7,108.6,373.7,99,373.7z"/></g></g><g><g><path d="M448.7,373.7c-11.2,0-22.3,0-33.5,0c-1.3,0-2.3,0.4-3-0.7c-0.4-0.7,0.1-4.5,0.1-5.6c0-5.7,0-11.3,0-17      c-2.5,2.5-5,5-7.5,7.5c17.4,0,34.8,0,52.1,0c-2.5-2.5-5-5-7.5-7.5C449.4,353.4,450.5,373.6,448.7,373.7c-9.6,0.8-9.6,15.8,0,15      c6.6-0.5,12.3-3.8,14.7-10.3c1.2-3.1,1.1-6.2,1.1-9.4c0-6.2,0-12.5,0-18.7c0-4.1-3.4-7.5-7.5-7.5c-17.4,0-34.8,0-52.1,0      c-4.1,0-7.5,3.4-7.5,7.5c0,6.5,0,12.9,0,19.4c0,10,5,18.4,15.9,18.9c11.8,0.5,23.7,0,35.5,0      C458.3,388.7,458.3,373.7,448.7,373.7z"/></g></g></g><g><g><path d="M98,307.8c-7.9,0-15.9,0-23.8,0c-4.7,0-9.5,0-14.2,0c-3.2,0-6.3,0.3-8.8-2.1c-3.8-3.8-2.1-10.7,3.2-12.1     c2.4-0.6,5.4-0.3,7.9-0.3c10.2,0,20.3,0,30.5,0c3,0,6.8-0.6,9.4,1.3C108.1,298.7,104.7,307.5,98,307.8c-9.6,0.4-9.7,15.4,0,15     c10.9-0.5,20.2-7.8,21.9-18.9c1.6-10.5-4.7-20.9-14.8-24.4c-4.7-1.6-9.8-1.2-14.6-1.2c-6.7,0-13.5,0-20.2,0     c-4.6,0-9.2-0.1-13.7,0c-9.6,0.3-18.2,5.8-21.3,15.1c-3.3,9.8,0.8,21.1,9.8,26.3c5.2,3,10.7,3,16.5,3c12.2,0,24.3,0,36.5,0     C107.6,322.8,107.6,307.8,98,307.8z"/></g></g><g><g><path d="M162.7,307.8c-4.5,0-10.8,1.2-15.1-0.4c-7.8-2.9-5-13.5,2.5-14.1c2.6-0.2,5.2,0,7.8,0c2.2,0,5.2-0.4,7.3,0.4     C172.8,296.6,170.3,307.5,162.7,307.8c-9.6,0.4-9.7,15.4,0,15c13-0.6,23.5-11.2,22-24.6c-1.3-12.2-11.6-19.8-23.5-19.9     c-9.3-0.1-19-0.9-26.4,6.1c-9.2,8.7-9.2,24.3,0.5,32.7c7.8,6.8,17.8,5.7,27.3,5.7C172.3,322.8,172.3,307.8,162.7,307.8z"/></g></g></g></svg>