<?xml version="1.0" ?><svg id="telephone-line-call-center-ask" style="enable-background:new 0 0 15.707 15.207;" version="1.1" viewBox="0 0 15.707 15.207" xml:space="preserve" xmlns="http://www.w3.org/2000/svg" xmlns:xlink="http://www.w3.org/1999/xlink"><path d="M15.707,11.707L12,8l-1,1L6.707,4.707l1-1L4,0L2.646,1.354c-1.298,1.298-1.298,3.409,0,4.707l7,7  c0.521,0.521,1.175,0.823,1.854,0.925v0.221H5v1h7.5v-1.221c0.679-0.102,1.332-0.404,1.854-0.925L15.707,11.707z M13.646,12.354  c-0.908,0.908-2.385,0.908-3.293,0l-7-7c-0.908-0.908-0.908-2.385,0-3.293L4,1.414l2.293,2.293l-1,1L11,10.414l1-1l2.293,2.293  L13.646,12.354z"/><rect height="1" width="2" x="2" y="14.207"/><rect height="1" width="1" y="14.207"/></svg>